<?xml version="1.0" encoding="utf-8"?>
<!-- Generator: Adobe Illustrator 25.0.1, SVG Export Plug-In . SVG Version: 6.00 Build 0)  -->
<svg version="1.1" id="Layer_1" xmlns="http://www.w3.org/2000/svg" xmlns:xlink="http://www.w3.org/1999/xlink" x="0px" y="0px"
	 viewBox="0 0 68 68" style="enable-background:new 0 0 68 68;" xml:space="preserve">
<style type="text/css">
	.st0{clip-path:url(#SVGID_2_);fill:#313535;}
	.st1{opacity:0.5;clip-path:url(#SVGID_2_);fill:#010202;}
	.st2{opacity:0.9;clip-path:url(#SVGID_2_);fill:#313535;}
	.st3{opacity:0.9;clip-path:url(#SVGID_2_);fill:#010202;}
	.st4{opacity:0.7;clip-path:url(#SVGID_2_);fill:#313535;}
</style>
<g>
	<defs>
		<path id="SVGID_1_" d="M33.7,63.3L33.7,63.3c-16.6,0-30-13.4-30-30v0c0-16.6,13.4-30,30-30h0c16.6,0,30,13.4,30,30v0
			C63.7,49.9,50.2,63.3,33.7,63.3z"/>
	</defs>
	<clipPath id="SVGID_2_">
		<use xlink:href="#SVGID_1_"  style="overflow:visible;"/>
	</clipPath>
	<path class="st0" d="M48.5,63.6L48.5,63.6c-4.6,0-8.4-3.8-8.4-8.4v0c0-4.6,3.8-8.4,8.4-8.4h0c4.6,0,8.4,3.8,8.4,8.4v0
		C56.9,59.8,53.1,63.6,48.5,63.6z"/>
	<path class="st1" d="M33.7,63.3L33.7,63.3c-16.6,0-30-13.4-30-30v0c0-16.6,13.4-30,30-30h0c16.6,0,30,13.4,30,30v0
		C63.7,49.9,50.2,63.3,33.7,63.3z"/>
	<path class="st2" d="M20.6,37.3L20.6,37.3c-6.7,0-12.1-5.4-12.1-12.1v0c0-6.7,5.4-12.1,12.1-12.1h0c6.7,0,12.1,5.4,12.1,12.1v0
		C32.7,31.9,27.3,37.3,20.6,37.3z"/>
	<path class="st2" d="M43.7,25.5L43.7,25.5c-2.9,0-5.3-2.4-5.3-5.3v0c0-2.9,2.4-5.3,5.3-5.3h0c2.9,0,5.3,2.4,5.3,5.3v0
		C49,23.1,46.6,25.5,43.7,25.5z"/>
	<path class="st3" d="M27,53.2L27,53.2c-2.9,0-5.3-2.4-5.3-5.3v0c0-2.9,2.4-5.3,5.3-5.3h0c2.9,0,5.3,2.4,5.3,5.3v0
		C32.3,50.8,29.9,53.2,27,53.2z"/>
	<path class="st4" d="M53.3,43.1L53.3,43.1c-6.7,0-12.1-5.4-12.1-12.1v0c0-6.7,5.4-12.1,12.1-12.1h0c6.7,0,12.1,5.4,12.1,12.1v0
		C65.4,37.7,60,43.1,53.3,43.1z"/>
</g>
</svg>
