<svg width="150" height="150" viewBox="0 0 150 150" fill="none" xmlns="http://www.w3.org/2000/svg">
<rect width="150" height="150" rx="75" fill="none"/>
<circle cx="75" cy="75" r="75" fill="#303030"/>
<path d="M82.0751 85.3591L74.5356 78.1152C67.0706 70.9446 57.1173 67 46.4935 67C35.8697 67 25.9164 70.9446 18.4514 78.1152L10.9119 85.3591C9.22818 87.1627 10.2712 89.0837 10.9119 89.6409L18.4514 96.8848C25.9164 104.055 35.8697 108 46.4935 108C57.1173 108 67.0706 104.055 74.5356 96.8848L82.0751 89.6409C82.6711 89.0837 83.8184 87.2361 82.0751 85.3591V85.3591ZM46.4935 97.7353C40.7569 97.7353 36.0932 93.1456 36.0932 87.5C36.0932 81.8544 40.7569 77.2647 46.4935 77.2647C52.23 77.2647 56.8938 81.8544 56.8938 87.5C56.8938 93.1456 52.23 97.7353 46.4935 97.7353ZM17.3935 87.5L22.7128 82.397C26.7359 78.5258 31.6231 75.769 36.9723 74.2732C32.7704 77.2207 30.0288 82.0451 30.0288 87.4853C30.0288 92.9256 32.7704 97.7647 36.9723 100.697C31.6231 99.2017 26.7359 96.4449 22.7128 92.5883L17.3935 87.5ZM70.289 92.603C66.266 96.4596 61.3787 99.2164 56.0296 100.712C60.2314 97.7647 62.9731 92.9403 62.9731 87.5C62.9731 82.0451 60.2314 77.2207 56.0296 74.2879C61.3787 75.7836 66.266 78.5404 70.289 82.4117L75.5935 87.5147L70.289 92.603Z" fill="#56C2FF"/>
<path d="M131.379 106.538L126.318 101.591C121.308 96.6938 114.627 94 107.496 94C100.365 94 93.6836 96.6938 88.6728 101.591L83.6121 106.538C82.4819 107.77 83.182 109.082 83.6121 109.462L88.6728 114.409C93.6836 119.306 100.365 122 107.496 122C114.627 122 121.308 119.306 126.318 114.409L131.379 109.462C131.779 109.082 132.549 107.82 131.379 106.538V106.538ZM107.496 114.99C103.645 114.99 100.515 111.856 100.515 108C100.515 104.144 103.645 101.01 107.496 101.01C111.346 101.01 114.477 104.144 114.477 108C114.477 111.856 111.346 114.99 107.496 114.99ZM87.9627 108L91.5333 104.515C94.2337 101.871 97.5141 99.9886 101.105 98.9671C98.2843 100.98 96.444 104.275 96.444 107.99C96.444 111.705 98.2843 115.01 101.105 117.013C97.5141 115.991 94.2337 114.109 91.5333 111.475L87.9627 108ZM123.468 111.485C120.768 114.119 117.487 116.001 113.897 117.023C116.717 115.01 118.557 111.715 118.557 108C118.557 104.275 116.717 100.98 113.897 98.9771C117.487 99.9986 120.768 101.881 123.468 104.525L127.029 108.01L123.468 111.485Z" fill="#E7FF56"/>
<path d="M133.872 43.8369L124.68 34.8262C115.579 25.9067 103.444 21 90.4921 21C77.5397 21 65.4049 25.9067 56.3037 34.8262L47.1118 43.8369C45.059 46.0805 46.3306 48.47 47.1118 49.1631L56.3037 58.1738C65.4049 67.0934 77.5397 72 90.4921 72C103.444 72 115.579 67.0934 124.68 58.1738L133.872 49.1631C134.599 48.47 135.998 46.1717 133.872 43.8369V43.8369ZM90.4921 59.2318C83.4982 59.2318 77.8122 53.5225 77.8122 46.5C77.8122 39.4775 83.4982 33.7682 90.4921 33.7682C97.4859 33.7682 103.172 39.4775 103.172 46.5C103.172 53.5225 97.4859 59.2318 90.4921 59.2318ZM55.014 46.5L61.4992 40.1524C66.404 35.3369 72.3624 31.9077 78.884 30.0472C73.7612 33.7135 70.4187 39.7146 70.4187 46.4818C70.4187 53.2489 73.7612 59.2682 78.884 62.9163C72.3624 61.0558 66.404 57.6266 61.4992 52.8294L55.014 46.5ZM119.503 52.8476C114.598 57.6449 108.64 61.074 102.118 62.9346C107.241 59.2682 110.584 53.2672 110.584 46.5C110.584 39.7146 107.241 33.7135 102.118 30.0655C108.64 31.926 114.598 35.3552 119.503 40.1706L125.97 46.5182L119.503 52.8476Z" fill="#F34747"/>
</svg>
