<?xml version="1.0" encoding="utf-8"?>
<!-- Generator: Adobe Illustrator 25.0.1, SVG Export Plug-In . SVG Version: 6.00 Build 0)  -->
<svg version="1.1" id="Layer_1" xmlns="http://www.w3.org/2000/svg" xmlns:xlink="http://www.w3.org/1999/xlink" x="0px" y="0px"
	 viewBox="0 0 68 68" style="enable-background:new 0 0 68 68;" xml:space="preserve">
<style type="text/css">
	.st0{fill:#61DAFB;}
</style>
<g>
	<path class="st0" d="M64,35c0-4.5-5-8.7-12.6-11.3c1.8-8.7,1-15.7-2.5-17.9c-0.8-0.5-1.7-0.8-2.7-0.8v3.1c0.6,0,1,0.1,1.4,0.4
		c1.7,1.1,2.4,5.1,1.8,10.4c-0.1,1.3-0.4,2.7-0.6,4c-2.4-0.7-5-1.2-7.8-1.5c-1.7-2.5-3.4-4.8-5.1-6.9c4-4.2,7.7-6.4,10.3-6.4V5
		c-3.4,0-7.8,2.7-12.2,7.4c-4.5-4.6-8.9-7.3-12.2-7.3v3.1c2.5,0,6.3,2.3,10.3,6.4c-1.7,2-3.4,4.3-5.1,6.9c-2.8,0.3-5.4,0.8-7.8,1.5
		c-0.3-1.4-0.5-2.7-0.6-4c-0.6-5.2,0.1-9.3,1.8-10.4c0.4-0.2,0.8-0.4,1.4-0.4V5.1c-1,0-2,0.2-2.8,0.8c-3.4,2.2-4.2,9.2-2.4,17.9
		C9,26.4,4,30.6,4,35c0,4.5,5,8.7,12.6,11.3c-1.8,8.7-1,15.7,2.5,17.9c0.8,0.5,1.7,0.8,2.8,0.8c3.4,0,7.8-2.7,12.2-7.4
		c4.5,4.6,8.9,7.3,12.2,7.3c1,0,2-0.2,2.8-0.8c3.4-2.2,4.2-9.2,2.4-17.9C59,43.7,64,39.5,64,35L64,35z M48.1,25.9
		c-0.5,1.8-1,3.6-1.7,5.4c-0.5-1.1-1-2.2-1.6-3.3c-0.6-1.1-1.2-2.2-1.8-3.2C44.8,25.1,46.5,25.4,48.1,25.9L48.1,25.9z M42.5,40.5
		c-1,1.9-1.9,3.6-2.9,5.2C37.7,45.9,35.9,46,34,46c-1.8,0-3.7-0.1-5.5-0.3c-1-1.6-2-3.4-3-5.2c-0.9-1.8-1.8-3.6-2.5-5.5
		c0.8-1.8,1.6-3.7,2.5-5.5c1-1.9,1.9-3.6,2.9-5.2c1.8-0.2,3.7-0.3,5.5-0.3c1.8,0,3.7,0.1,5.5,0.3c1,1.6,2,3.4,3,5.2
		c0.9,1.8,1.8,3.6,2.5,5.5C44.2,36.9,43.4,38.7,42.5,40.5L42.5,40.5z M46.4,38.7c0.7,1.8,1.2,3.7,1.7,5.5c-1.6,0.4-3.3,0.8-5,1.1
		c0.6-1.1,1.2-2.1,1.8-3.3C45.4,40.9,45.9,39.8,46.4,38.7L46.4,38.7z M34,53.4c-1.1-1.3-2.3-2.8-3.4-4.4c1.1,0.1,2.2,0.1,3.4,0.1
		c1.1,0,2.3,0,3.4-0.1C36.3,50.6,35.1,52.1,34,53.4z M24.9,45.3c-1.7-0.3-3.4-0.6-5-1.1c0.5-1.8,1-3.6,1.7-5.4
		c0.5,1.1,1,2.2,1.6,3.3C23.7,43.2,24.3,44.2,24.9,45.3z M34,16.7c1.1,1.3,2.3,2.8,3.4,4.4C36.3,21.1,35.1,21,34,21
		c-1.1,0-2.3,0-3.4,0.1C31.7,19.5,32.8,18,34,16.7z M24.9,24.8c-0.6,1.1-1.2,2.1-1.8,3.3c-0.6,1.1-1.1,2.2-1.6,3.3
		c-0.7-1.8-1.2-3.7-1.7-5.5C21.5,25.5,23.2,25.1,24.9,24.8L24.9,24.8z M13.8,42c-4.3-2.1-7.1-4.8-7.1-6.9s2.8-4.9,7.1-6.9
		c1.1-0.5,2.2-1,3.4-1.4c0.7,2.7,1.6,5.5,2.8,8.4c-1.1,2.9-2,5.6-2.7,8.3C16.1,43,14.9,42.5,13.8,42L13.8,42z M20.4,61.6
		c-1.7-1.1-2.4-5.1-1.8-10.4c0.1-1.3,0.4-2.7,0.6-4c2.4,0.7,5,1.2,7.8,1.5c1.7,2.5,3.4,4.8,5.1,6.9c-4,4.2-7.7,6.4-10.3,6.4
		C21.3,62,20.8,61.9,20.4,61.6L20.4,61.6z M49.4,51.2c0.6,5.2-0.1,9.3-1.8,10.4c-0.4,0.2-0.8,0.4-1.4,0.4c-2.5,0-6.3-2.3-10.3-6.4
		c1.7-2,3.4-4.3,5.1-6.9c2.8-0.3,5.4-0.8,7.8-1.5C49.1,48.5,49.3,49.9,49.4,51.2z M54.1,42c-1.1,0.5-2.2,1-3.4,1.4
		c-0.7-2.7-1.6-5.5-2.8-8.4c1.1-2.9,2-5.6,2.7-8.3c1.2,0.4,2.4,0.9,3.4,1.4c4.3,2.1,7.1,4.8,7.1,6.9C61.3,37.2,58.5,39.9,54.1,42
		L54.1,42z"/>
	<ellipse class="st0" cx="34" cy="35" rx="5.6" ry="6.3"/>
	<path class="st0" d="M46.2,5.1"/>
</g>
</svg>
