<svg width="150" height="150" viewBox="0 0 150 150" fill="none" xmlns="http://www.w3.org/2000/svg">
<rect width="150" height="150" rx="75" fill="none"/>
<circle cx="75" cy="75" r="75" fill="#303030"/>
<path d="M82.4272 29.2664C98.6811 33.2473 106.06 37.8071 115.487 50.9529M82.4272 29.2664C98.6811 33.2473 106.06 37.8071 115.487 50.9529M82.4272 29.2664C98.6811 33.2473 106.06 37.8071 115.487 50.9529M82.4272 29.2664C98.6811 33.2473 106.06 37.8071 115.487 50.9529" stroke="white" stroke-width="0.2"/>
<path d="M41.8068 97.2612C36.6917 88.5398 35.3874 82.9084 36.4272 71.2665M41.8068 97.2612C36.6917 88.5398 35.3874 82.9084 36.4272 71.2665M41.8068 97.2612C36.6917 88.5398 35.3874 82.9084 36.4272 71.2665M41.8068 97.2612C36.6917 88.5398 35.3874 82.9084 36.4272 71.2665" stroke="white" stroke-width="0.2"/>
<path d="M46.0284 67.3073C47.0498 55.3701 50.7983 50.0534 63.8676 44.291M46.0284 67.3073C47.0498 55.3701 50.7983 50.0534 63.8676 44.291C50.9826 50.0358 47.1696 55.0638 46.0284 67.3073Z" stroke="white" stroke-width="0.2"/>
<path d="M93.4907 99.1027C84.2367 106.712 77.8139 107.745 64.5601 102.42M93.4907 99.1027C84.2367 106.712 77.8139 107.745 64.5601 102.42C77.6725 107.625 83.9338 106.84 93.4907 99.1027Z" stroke="white" stroke-width="0.2"/>
<path d="M118.427 103.266C108.029 116.951 100.503 122.184 83.4272 126.266" stroke="white" stroke-width="0.2"/>
<path d="M79.8661 114.776C64.991 113.598 57.827 110.036 47.1723 97.9623C58.3716 110.231 65.5822 113.897 79.8661 114.776Z" stroke="white" stroke-width="0.2"/>
<path d="M68.9272 60.2665C72.3207 57.765 74.9506 57.6431 80.4272 59.7665" stroke="white" stroke-width="0.2"/>
<path d="M61.5095 77.829C59.1599 73.5015 58.7521 71.051 62.1834 66.3378" stroke="white" stroke-width="0.2"/>
<path d="M68.8216 89.6084C64.1898 88.1843 61.978 86.7632 59.0012 82.6623" stroke="white" stroke-width="0.2"/>
<path d="M91.4273 63.5012C93.8464 67.6999 94.4965 70.2473 93.8803 75.277" stroke="white" stroke-width="0.2"/>
<path d="M68.6016 76.2665C67.8322 73.4559 68.2691 71.7807 69.9273 68.7665" stroke="white" stroke-width="0.2"/>
<path d="M78.4272 66.3213C81.5103 67.1798 82.7262 68.5761 82.7549 72.7368" stroke="white" stroke-width="0.2"/>
<path d="M87.8407 78.5232C85.398 81.9596 83.5938 83.1596 79.2828 83.4725" stroke="white" stroke-width="0.2"/>
<circle cx="36.9272" cy="70.7665" r="3.5" fill="#FF5A5A"/>
<circle cx="78.2832" cy="83.1224" r="3.5" transform="rotate(-33.8275 78.2832 83.1224)" fill="#C97171"/>
<circle cx="69.4272" cy="69.2665" r="1" fill="#FF9BE9"/>
<circle cx="93.4272" cy="76.2665" r="3" fill="#FAFF00"/>
<circle cx="82.4272" cy="72.2665" r="2" fill="#00F0FF"/>
<circle cx="63.9272" cy="100.766" r="3.5" fill="#92F5D2"/>
<circle cx="81.9272" cy="125.766" r="3.5" fill="#4ADEFF"/>
<path d="M28.1098 51.7291C35.8959 36.4069 42.3656 29.9133 58.4366 22.8452" stroke="white" stroke-width="0.2"/>
<circle cx="60.0018" cy="23.0691" r="3.5" transform="rotate(169.707 60.0018 23.0691)" fill="#FFA14A"/>
<circle cx="115.927" cy="52.7665" r="3.5" fill="#FF0000"/>
<circle cx="61.4272" cy="66.2665" r="3" fill="#F7A6A6"/>
<circle cx="58.6304" cy="82.4696" r="3" transform="rotate(-37.1752 58.6304 82.4696)" fill="#4FCF5B"/>
<circle cx="80.4272" cy="60.2665" r="3" fill="#CC00FF"/>
<circle cx="64.9272" cy="43.7665" r="3.5" fill="#2602FF"/>
<path d="M95.4272 52.6918C105.594 59.0307 108.624 64.7872 107.811 79.0475M95.4272 52.6918C105.594 59.0307 108.624 64.7872 107.811 79.0475C108.556 64.9594 105.812 59.2768 95.4272 52.6918Z" stroke="white" stroke-width="0.2"/>
<circle cx="107.136" cy="79.9754" r="3.5" transform="rotate(117.054 107.136 79.9754)" fill="#9104FF"/>
<path d="M50 96.0698C50 98.0028 48.433 99.5698 46.5 99.5698C44.567 99.5698 43 98.0028 43 96.0698C43 94.1368 44.567 92.5698 46.5 92.5698C48.433 92.5698 50 94.1368 50 96.0698Z" fill="#68FF92"/>
<line x1="74.4772" y1="73.2165" x2="76.3772" y2="73.2165" stroke="white" stroke-width="0.1" stroke-linecap="round"/>
</svg>
