<svg width="150" height="150" viewBox="0 0 150 150" fill="none" xmlns="http://www.w3.org/2000/svg">
<g filter="url(#filter0_d)">
<g clip-path="url(#clip0)">
<rect width="150" height="150" rx="75" fill="none"/>
<circle cx="75" cy="75" r="75" fill="#303030"/>
<g style="mix-blend-mode:lighten">
<path d="M27 18C43.8617 92.0727 79.2016 100.722 164 88.5" stroke="#00FFD1" stroke-width="0.4"/>
</g>
<g style="mix-blend-mode:lighten">
<path d="M30.5 10.5C54.0481 83.4262 80.7485 101.11 159 80" stroke="#FFF500" stroke-width="0.4"/>
</g>
<g style="mix-blend-mode:lighten">
<path d="M20 18.5C31.8379 80.6558 63.0543 96.2671 158.5 93" stroke="#14B9FF" stroke-width="0.4"/>
</g>
<g style="mix-blend-mode:lighten">
<path d="M8 37C15.7405 62.9454 45.3789 81.7401 147 114" stroke="#7102FF" stroke-width="0.4"/>
</g>
<g style="mix-blend-mode:lighten">
<path d="M17.5 24.5C28.9476 74.5241 61.4325 87.7296 158.5 89" stroke="#0094FF" stroke-width="0.4"/>
</g>
<g style="mix-blend-mode:lighten">
<path d="M29.5 15C6.88742 65.0923 31.4814 84.6963 153 102" stroke="#0038FF" stroke-width="0.4"/>
</g>
<g style="mix-blend-mode:lighten">
<path d="M11.5 29.5C20.7982 79.5271 42.815 97.6065 156 86" stroke="#1400FF" stroke-width="0.4"/>
</g>
<g style="mix-blend-mode:lighten">
<path d="M24 21C-15 35 71.0118 114.462 156.5 68.5" stroke="#FF7676" stroke-width="0.4"/>
</g>
<g style="mix-blend-mode:lighten">
<path d="M46 4C54.9605 69.6301 32.1425 110.742 153.5 75" stroke="#FF0000" stroke-width="0.4"/>
</g>
<g style="mix-blend-mode:lighten">
<path d="M8 40C15.5164 53.1926 29.5598 78.7067 82 101.5C134.44 124.293 118.016 115.345 143.5 122.5" stroke="#0029FF" stroke-width="0.4"/>
</g>
<g style="mix-blend-mode:lighten">
<path d="M10.5 32.5C-9.08933 50.3381 75.9464 106.797 153 106.5" stroke="#9643FF" stroke-width="0.4"/>
</g>
<g style="mix-blend-mode:lighten">
<path d="M39 9C35.226 71.3787 61.7477 90.6421 156.5 99" stroke="#00FF29" stroke-width="0.4"/>
</g>
<g style="mix-blend-mode:lighten">
<path d="M33.5 11C30.8028 80.2304 52.9535 100.177 158 83.5" stroke="#CCFF00" stroke-width="0.4"/>
</g>
<g style="mix-blend-mode:lighten">
<path d="M17.5 29C45.7073 91.914 78.528 99.9638 158.5 80" stroke="#00FFE0" stroke-width="0.4"/>
</g>
<g style="mix-blend-mode:lighten">
<path d="M45 4.5C-3.97802 28.6234 49.6257 100.268 153 99.5" stroke="#24FF00" stroke-width="0.4"/>
</g>
<g style="mix-blend-mode:lighten">
<path d="M31.5 10.5C52.4655 81.4758 77.2714 100.141 157 76" stroke="#FFA800" stroke-width="0.4"/>
</g>
<g style="mix-blend-mode:lighten">
<path d="M13.5 31C13.5 31 50.372 100.012 98 95.5C145.628 90.9877 140.277 109.721 146 116" stroke="#AD00FF" stroke-width="0.4"/>
</g>
<g style="mix-blend-mode:lighten">
<path d="M15.5 25.5C16.4695 44.0401 -37.7402 19.84 80.0001 99.5C87.3535 103.539 104.206 109.193 144.5 122" stroke="#4536FC" stroke-width="0.4"/>
</g>
<g style="mix-blend-mode:lighten">
<path d="M18 25C27.525 72.785 49.8548 93.0637 149 106.5" stroke="black" stroke-width="0.4"/>
</g>
<g style="mix-blend-mode:lighten">
<path d="M33.5 11.5C37.7146 81.4684 57.9673 104.301 158.5 86" stroke="#8FFF00" stroke-width="0.4"/>
</g>
<g style="mix-blend-mode:lighten">
<path d="M20 18C20.8 18.8 18 70.5 62 81.5C106 92.5 110.194 115.904 130 118.5" stroke="#4200FF" stroke-width="0.4"/>
</g>
<g style="mix-blend-mode:lighten">
<path d="M26.5 17C28.7339 61.7512 49.2156 83.2648 151 109.5" stroke="#1400FF" stroke-width="0.4"/>
</g>
<g style="mix-blend-mode:lighten">
<path d="M29 7.5C24.0778 37.8628 31.75 108.75 80.5 81.5C129.25 54.25 127.949 90.0073 156.5 95.5" stroke="#00FF47" stroke-width="0.4"/>
</g>
<g style="mix-blend-mode:lighten">
<path d="M9.49515 42C0.463604 46.9323 117.514 140.391 154 77.0743" stroke="white" stroke-width="0.4"/>
</g>
<g style="mix-blend-mode:lighten">
<path d="M49 2C54.1082 84.5923 77.836 99.7469 158 70" stroke="#FF7A00" stroke-width="0.4"/>
</g>
<g style="mix-blend-mode:lighten">
<path d="M27 11C41.9768 82.4688 74.6049 95.9369 161 89" stroke="#42FF00" stroke-width="0.4"/>
</g>
</g>
</g>
<defs>
<filter id="filter0_d" x="0" y="0" width="150" height="150" filterUnits="userSpaceOnUse" color-interpolation-filters="sRGB">
<feFlood flood-opacity="0" result="BackgroundImageFix"/>
<feColorMatrix in="SourceAlpha" type="matrix" values="0 0 0 0 0 0 0 0 0 0 0 0 0 0 0 0 0 0 127 0" result="hardAlpha"/>
<feGaussianBlur stdDeviation="2"/>
<feComposite in2="hardAlpha" operator="out"/>
<feColorMatrix type="matrix" values="0 0 0 0 0 0 0 0 0 0 0 0 0 0 0 0 0 0 0.25 0"/>
<feBlend mode="normal" in2="BackgroundImageFix" result="effect1_dropShadow"/>
<feBlend mode="normal" in="SourceGraphic" in2="effect1_dropShadow" result="shape"/>
</filter>
</defs>
</svg>
