<svg width="150" height="150" viewBox="0 0 150 150" fill="none" xmlns="http://www.w3.org/2000/svg">
<rect width="150" height="150" rx="75" fill="none"/>
<circle cx="75" cy="75" r="75" fill="#303030"/>
<line x1="66.132" y1="60.0713" x2="39.132" y2="110.071" stroke="#777777" stroke-width="0.3"/>
<line x1="31.0353" y1="43.2938" x2="51.2938" y2="24.9647" stroke="#9E9E9E" stroke-linecap="round"/>
<line x1="111.488" y1="98.3061" x2="133.306" y2="94.5117" stroke="#9E9E9E" stroke-width="1.2" stroke-linecap="round"/>
<line x1="51.2769" y1="24.8846" x2="66.2769" y2="60.8846" stroke="#A6A6A6" stroke-width="0.6"/>
<line x1="31.4677" y1="43.8381" x2="65.8381" y2="60.5323" stroke="#9D9D9D" stroke-width="0.7" stroke-linecap="round"/>
<line x1="65.9374" y1="60.8637" x2="102.937" y2="43.8637" stroke="#A6A6A6" stroke-width="0.3"/>
<line x1="52.0524" y1="24.8594" x2="103.052" y2="43.8594" stroke="#A5A5A5" stroke-width="0.3"/>
<circle cx="31" cy="44" r="4" fill="#4DF4FF"/>
<circle cx="31" cy="44" r="4" fill="#86FF4D"/>
<circle cx="31" cy="44" r="4" fill="#4DF4FF"/>
<circle cx="31" cy="44" r="4" fill="#DB4DFF"/>
<circle cx="66" cy="60" r="4" fill="#4DF4FF"/>
<circle cx="66" cy="60" r="4" fill="#4DF4FF"/>
<circle cx="66" cy="60" r="4" fill="#4DF4FF"/>
<circle cx="66" cy="60" r="4" fill="#65FF4D"/>
<circle cx="52" cy="25" r="4" fill="#4DF4FF"/>
<circle cx="52" cy="25" r="4" fill="#4DF4FF"/>
<circle cx="52" cy="25" r="4" fill="#4DF4FF"/>
<circle cx="52" cy="25" r="4" fill="#4DF4FF"/>
<circle cx="39" cy="110" r="4" fill="#4DF4FF"/>
<circle cx="39" cy="110" r="4" fill="#4DF4FF"/>
<circle cx="39" cy="110" r="4" fill="#4DF4FF"/>
<circle cx="39" cy="110" r="4" fill="#E6FF4D"/>
<circle cx="103" cy="44" r="4" fill="#4DF4FF"/>
<circle cx="103" cy="44" r="4" fill="#4DF4FF"/>
<circle cx="103" cy="44" r="4" fill="#4DF4FF"/>
<circle cx="103" cy="44" r="4" fill="#FFA24D"/>
<circle cx="134" cy="95" r="4" fill="#4DF4FF"/>
<circle cx="134" cy="95" r="4" fill="#4DF4FF"/>
<circle cx="134" cy="95" r="4" fill="#4DF4FF"/>
<circle cx="134" cy="95" r="4" fill="#FF4D4D"/>
<circle cx="111" cy="99" r="4" fill="#4DF4FF"/>
<circle cx="111" cy="99" r="4" fill="#4DF4FF"/>
<circle cx="111" cy="99" r="4" fill="#4DF4FF"/>
<circle cx="111" cy="99" r="4" fill="#4D69FF"/>
</svg>
