<svg width="150" height="150" viewBox="0 0 150 150" fill="none" xmlns="http://www.w3.org/2000/svg">
<rect width="150" height="150" rx="75" fill="white"/>
<circle cx="75" cy="75" r="75" fill="#4F4F4F"/>
<g style="mix-blend-mode:color-dodge">
<path d="M131.959 71.5772H121.984L126.456 67.1356C127.644 65.9561 127.644 64.0438 126.456 62.8647C125.269 61.6852 123.344 61.6848 122.157 62.8643L113.384 71.5772H98.64L105.2 64.5737C106.344 63.3528 106.275 61.442 105.045 60.3052C104.541 59.8397 103.92 59.5796 103.284 59.5156C102.898 59.4966 94.5693 59.5144 94.5693 59.5144L104.317 49.8322H116.554C118.234 49.8322 119.595 48.4804 119.595 46.8121C119.595 45.1438 118.234 43.7919 116.554 43.7919H110.398L117.569 36.6685C118.757 35.4886 118.757 33.5766 117.569 32.3968C116.381 31.2177 114.389 31.2177 113.201 32.3968L105.879 39.604V33.3221C105.879 31.6538 104.518 30.302 102.838 30.302C101.158 30.302 99.7974 31.6538 99.7974 33.3221V45.6447L89.7284 55.7134L89.5601 46.5946C89.5597 46.5801 89.5743 46.5664 89.5739 46.5519C89.5597 45.8174 89.2885 45.0858 88.7347 44.5148C87.57 43.314 85.5815 43.2785 84.3722 44.4366L77.9055 50.5679V36.3854L86.6096 27.8066C87.797 26.6267 87.8307 24.7148 86.6432 23.5353C85.4554 22.3562 83.4799 22.3562 82.2924 23.5353L77.9055 27.8424V18.0201C77.9055 16.3518 76.5446 15 74.865 15C73.1854 15 71.8245 16.3518 71.8245 18.0201V27.8428L67.5555 23.5357C66.3677 22.3566 64.4769 22.3566 63.2891 23.5357C62.1016 24.7156 62.0509 26.6275 63.2384 27.807L71.8245 36.3858V50.6493L65.2666 44.4177C64.0468 43.2713 62.1572 43.3232 61.0018 44.5341C60.5659 44.9915 60.3195 45.5489 60.2258 46.1267C60.1682 46.3615 60.1435 46.6051 60.1443 46.856L60.1086 55.4046L49.933 45.36V33.3221C49.933 31.6538 48.572 30.302 46.8924 30.302C45.2128 30.302 43.8519 31.6538 43.8519 33.3221V39.3197L36.9495 32.3968C35.7616 31.2177 33.8708 31.2177 32.683 32.3968C31.4955 33.5766 31.5126 35.4886 32.7 36.6685L39.8886 43.7919H33.4459C31.7664 43.7919 30.4054 45.1438 30.4054 46.8121C30.4054 48.4804 31.7664 49.8322 33.4459 49.8322H45.9697L56.0011 59.7962L46.6536 60.1309C45.0235 60.1897 43.6034 61.5141 43.5876 63.118C43.5859 63.1631 43.4461 63.2086 43.4461 63.2537C43.4461 63.2549 43.4461 63.2565 43.4461 63.2581C43.4461 63.2613 43.5859 63.265 43.5859 63.2678C43.6042 64.0228 43.9731 64.7722 44.5569 65.3448L50.9789 71.5772H36.902L28.1299 62.8639C26.942 61.6848 25.0172 61.6848 23.8297 62.8639C22.6423 64.0438 22.6423 65.9557 23.8297 67.1352L28.3014 71.5768H18.0405C16.3609 71.5768 15 72.9286 15 74.5969C15 76.2652 16.3609 77.617 18.0405 77.617H28.1838L23.8297 81.9419C22.6423 83.1217 22.6423 85.0337 23.8297 86.2132C24.4236 86.8027 25.202 87.0975 25.98 87.0975C26.758 87.0975 27.5364 86.8027 28.1303 86.2132L36.7841 77.6175H50.9842L44.8005 84.2191C43.6569 85.44 43.7262 87.3507 44.9558 88.4875C45.5412 89.0287 46.2843 89.2965 47.0258 89.2965C47.0396 89.2965 47.0534 89.2945 47.0676 89.2945C47.0765 89.2945 47.0854 89.2957 47.0939 89.2957C47.1012 89.2957 47.1089 89.2957 47.1162 89.2957L56.0372 89.2454L45.8518 99.3624H33.4459C31.7664 99.3624 30.4054 100.714 30.4054 102.383C30.4054 104.051 31.7664 105.403 33.4459 105.403H39.7707L32.717 112.409C31.5296 113.589 31.5296 115.501 32.717 116.68C33.3109 117.27 34.0893 117.565 34.8673 117.565C35.6453 117.565 36.3559 117.27 36.9499 116.68L43.8519 109.758V115.872C43.8519 117.541 45.2128 118.893 46.8924 118.893C48.572 118.893 49.933 117.541 49.933 115.872V103.717L60.2485 93.5384L60.6446 103.36C60.7046 104.989 62.0704 106.302 63.6981 106.269C64.2511 106.258 64.8511 106.082 65.4462 105.648C65.8772 105.333 71.8249 99.2807 71.8249 99.2807V113.53L63.3231 122.041C62.1353 123.221 62.1693 125.133 63.3564 126.312C63.9503 126.902 64.7449 127.197 65.5232 127.197C66.3012 127.197 67.0204 126.902 67.6139 126.313L71.8249 122.072V131.98C71.8249 133.648 73.1858 135 74.8654 135C76.545 135 77.9059 133.648 77.9059 131.98V121.788L82.5292 126.313C83.1231 126.902 83.9351 127.197 84.7131 127.197C85.4911 127.197 86.2865 126.902 86.88 126.313C88.0674 125.133 88.0082 123.221 86.8208 122.042L77.9059 113.245V98.8691C77.9059 98.8691 83.4718 104.062 84.3503 104.9C85.2288 105.737 85.9484 106.208 86.9955 106.208C87.0016 106.208 87.0077 106.208 87.0142 106.208C88.6934 106.208 90.0466 104.757 90.0365 103.089L89.9124 93.5473L99.7978 103.434V115.872C99.7978 117.541 101.159 118.893 102.838 118.893C104.518 118.893 105.879 117.541 105.879 115.872V109.473L113.202 116.68C113.796 117.27 114.608 117.565 115.386 117.565C116.164 117.565 116.959 117.27 117.553 116.68C118.74 115.5 118.749 113.588 117.561 112.409L110.516 105.403H116.554C118.234 105.403 119.595 104.051 119.595 102.383C119.595 100.714 118.234 99.3624 116.554 99.3624H104.435L93.9989 88.9965L103.347 88.6619C103.38 88.6607 103.413 88.6554 103.446 88.6534C103.458 88.6526 103.47 88.6514 103.482 88.6502C105.094 88.5217 106.335 87.1566 106.276 85.535C106.241 84.5589 105.741 83.7105 104.997 83.1846L99.3803 77.6175H113.503L122.156 86.2132C122.75 86.8031 123.528 87.0979 124.306 87.0979C125.084 87.0979 125.863 86.8031 126.456 86.2136C127.644 85.0341 127.644 83.1217 126.456 81.9427L122.102 77.6179H131.959C133.639 77.6179 135 76.266 135 74.5977C135 72.9294 133.639 71.5772 131.959 71.5772ZM95.998 65.5301L90.3336 71.5772H82.4254L88.5073 65.5361L95.998 65.5301ZM83.5987 53.5707L83.743 61.6252L77.9055 67.3897V58.957L83.5987 53.5707ZM66.1877 53.6034L71.8245 58.9683V67.1046L66.1792 61.4638L66.1877 53.6034ZM53.863 65.917L61.8746 65.6303L67.8616 71.5772H59.6323L53.863 65.917ZM54.0186 83.2458L59.2905 77.6175H67.7436L62.1324 83.191L54.0186 83.2458ZM66.4309 96.1808L66.0847 87.7075L71.8245 81.9729V90.6725L66.4309 96.1808ZM83.8455 96.0459L77.9055 90.6185V81.6874L83.7604 87.4695L83.8455 96.0459ZM96.0774 82.8781L88.1258 83.1624L82.5434 77.6175H90.7699L96.0774 82.8781Z" fill="#00E0FF"/>
</g>
</svg>
